<?xml version="1.0" standalone="no"?>
<!DOCTYPE svg PUBLIC "-//W3C//DTD SVG 20010904//EN"
 "http://www.w3.org/TR/2001/REC-SVG-20010904/DTD/svg10.dtd">
<svg version="1.0" xmlns="http://www.w3.org/2000/svg"
 width="100.000000pt" height="100.000000pt" viewBox="0 0 100.000000 100.000000"
 preserveAspectRatio="xMidYMid meet">
<metadata>
Created by potrace 1.11, written by Peter Selinger 2001-2013
</metadata>
<g transform="translate(0.000000,100.000000) scale(0.100000,-0.100000)"
fill="#000000" stroke="none">
<path d="M435 964 c-96 -20 -226 -85 -280 -140 -101 -105 -151 -281 -120 -424
10 -48 69 -152 108 -190 57 -57 131 -107 182 -124 63 -20 161 -31 168 -19 4 6
-16 10 -44 11 -93 2 -238 92 -311 192 -14 19 -37 58 -52 87 -64 127 -4 363
119 470 110 96 275 130 420 88 54 -15 127 -54 150 -79 6 -6 25 -25 44 -41 l34
-30 -19 35 c-47 82 -198 160 -319 164 -39 1 -75 2 -80 0z"/>
<path d="M609 738 c0 -7 -1 -112 -1 -233 l-1 -220 31 -3 32 -3 0 90 0 91 30 0
c26 0 36 -10 90 -90 57 -84 63 -90 95 -90 19 0 35 3 35 6 0 3 -27 44 -60 92
-60 85 -60 87 -38 94 35 12 78 84 78 131 0 59 -27 107 -72 127 -50 22 -218 28
-219 8z m202 -74 c31 -31 31 -81 0 -115 -28 -30 -34 -32 -98 -30 l-43 1 0 78
c0 43 3 81 6 85 14 14 116 -1 135 -19z"/>
<path d="M802 194 c-20 -20 -66 -51 -102 -69 -72 -37 -87 -42 -145 -51 -48 -7
-57 -12 -49 -25 12 -20 108 -6 173 25 71 33 210 155 178 156 -11 0 -35 -16
-55 -36z"/>
</g>
</svg>
