<?xml version="1.0" encoding="utf-8"?>
<!-- Generator: Adobe Illustrator 25.0.1, SVG Export Plug-In . SVG Version: 6.00 Build 0)  -->
<svg version="1.1" id="レイヤー_1" xmlns="http://www.w3.org/2000/svg" xmlns:xlink="http://www.w3.org/1999/xlink" x="0px"
	 y="0px" viewBox="0 0 86.5 39.9" style="enable-background:new 0 0 86.5 39.9;" xml:space="preserve">
<style type="text/css">
	.st0{fill:#231815;}
	.st1{fill:#231815;stroke:#FFFFFF;stroke-miterlimit:10;}
</style>
<g>
	<path class="st0" d="M33.7,8.8"/>
	<g>
		<path class="st1" d="M33.7,8.8"/>
	</g>
</g>
<path class="st0" d="M34.5,8.8c0,0-2.4-2.7-2-2c0.3,0.5-0.6-0.3-1.1-0.9c-0.3-0.3-0.6-0.5-1-0.8l-1.3-0.8L28,3.7
	c-0.2-0.1-0.4-0.2-0.6-0.3L26.1,3c-0.2-0.1-0.4-0.1-0.6-0.2l-1.9-0.4c-0.1,0-0.2,0-0.3-0.1l-1.1-0.2c-0.1,0-0.2,0-0.3,0h-1
	c-0.1,0-0.1,0-0.2,0l-2,0.1c-0.1,0-0.2,0-0.3,0l-1.1,0.1c-0.3,0-0.6,0.1-0.9,0.2L14.2,3c-0.4,0.1-0.7,0.2-1,0.4L10,5.1
	C9.8,5.2,9.6,5.4,9.4,5.5l-1,0.7C8.1,6.4,7.9,6.7,7.6,7L6.8,8C6.6,8.2,6.5,8.3,6.4,8.5l-1.8,2.7C4.4,11.6,4.2,12,4,12.4l-1.2,3.9
	c0,0.1-0.1,0.3-0.1,0.4l-0.3,1.4c-0.1,0.3-0.1,0.7-0.1,1v2.4c0,0.2,0,0.4,0,0.6L2.4,23c0,0.1,0,0.2,0.1,0.4l0.2,0.9
	c0.2,0.4,0.3,0.7,0.5,1l1,2c0.1,0.3,0.3,0.6,0.5,0.8L6.8,31c0.2,0.3,0.4,0.5,0.7,0.7l2.5,2.2c0.2,0.2,0.5,0.4,0.8,0.5l2.5,1.4
	c0.2,0.1,0.3,0.2,0.5,0.3l0.9,0.4c0.3,0.1,0.7,0.3,1,0.3l2.2,0.4c0.3,0,0.5,0.1,0.8,0.1h1.1h0.4l-0.3,0.4h-1.3c-0.2,0-0.5,0-0.7,0
	l-2.1-0.3c-0.2,0-0.3-0.1-0.5-0.1l-1.9-0.5c-0.3-0.1-0.6-0.2-0.8-0.3l-1.8-0.8c-0.4-0.2-0.8-0.4-1.1-0.7l-3.3-2.7
	c-0.4-0.4-0.8-0.8-1.1-1.2l-1.2-1.6c-0.2-0.3-0.4-0.5-0.5-0.8L2.2,26c-0.3-0.5-0.5-1-0.6-1.6l-0.4-2.2c-0.1-0.3-0.1-0.6-0.1-0.9
	v-3.1c0-0.4,0.1-0.9,0.2-1.3l0.8-3c0.1-0.2,0.1-0.4,0.2-0.5l0.8-2c0.1-0.3,0.3-0.5,0.4-0.8L5,8.3C5.2,8,5.4,7.8,5.6,7.5l1.6-1.6
	c0.2-0.2,0.5-0.4,0.7-0.6l1.5-1C9.6,4.2,9.8,4.1,10,4l2.5-1.2c0.2-0.1,0.4-0.2,0.5-0.2L14.2,2c0.1,0,0.2-0.1,0.4-0.1l2.1-0.6
	c0.1,0,0.2-0.1,0.4-0.1l1-0.2c0.3,0,0.6,0,0.9,0h1.7h1.1c0.4,0,0.7,0,1.1,0.1l1.9,0.4c0.3,0.1,0.6,0.2,0.8,0.3L28.5,3
	c0.3,0.1,0.7,0.3,1,0.6l1.1,0.8c0.1,0,0.1,0.1,0.2,0.1L31.5,5c0.1,0.1,0.3,0.2,0.4,0.3L32.7,6l0.1,0.1l0.3,0.3
	c0.4,0.4,0.7,0.9,1,1.5L34.5,8.8z"/>
<path class="st0" d="M20.8,37.6l-0.2,0.3l-0.2,0.4l0.8,0.3h1.4h1c0.2,0,0.7-0.1,1-0.1l0.9-0.2l0.9-0.4l1-0.5l1.1-0.5l0,0
	c0.6-0.3,1.6-0.9,2.1-1.3l0.7-0.5l0.5-0.4l0.5-0.4L32,34l-0.3-0.2L30,34.6l-1.2,0.6l-0.7,0.4c-0.1,0.1-0.9,0.5-1.1,0.5l-0.9,0.4
	c-0.1,0.1-0.6,0.2-0.7,0.3l-0.9,0.3c-0.5,0.1-0.8,0.2-1.4,0.3h-1c-0.1,0-0.8,0-0.9,0L20.8,37.6z"/>
<path class="st0" d="M31.9,33.6l0.3,0.3h0.4l1.3-1.3l1.6-1.6h-1.1c-0.1,0-1,0.9-1.1,1L32,33.2L31.9,33.6z"/>
<g>
	<path class="st0" d="M20.9,25.1v0.1h-1.8l-3.2-4.7h-1.6v4.7h-1.6V13.1h3.6c0.9,0,1.6,0.1,2.2,0.4c0.6,0.3,1,0.7,1.3,1.3
		c0.3,0.5,0.5,1.2,0.5,1.9c0,0.6-0.1,1.1-0.3,1.6c-0.2,0.5-0.5,0.9-0.9,1.3s-0.9,0.6-1.5,0.8L20.9,25.1z M14.3,19.1h1.8
		c0.9,0,1.5-0.2,1.9-0.6s0.7-1,0.7-1.7s-0.2-1.3-0.6-1.6c-0.4-0.4-1-0.6-1.8-0.6h-2C14.3,14.6,14.3,19.1,14.3,19.1z"/>
	<path class="st0" d="M27.1,23.8h5.4v1.5h-7V13.1h6.9v1.5h-5.3v3.8h4.7l-0.2,1.4h-4.5C27.1,19.8,27.1,23.8,27.1,23.8z"/>
	<path class="st0" d="M38.6,25.1c-0.7-0.2-1.3-0.6-1.8-1l0.7-1.2c0.5,0.4,1,0.7,1.5,0.9c0.6,0.2,1.1,0.3,1.6,0.3
		c0.8,0,1.4-0.2,1.9-0.5c0.4-0.3,0.6-0.8,0.6-1.5c0-0.4-0.1-0.7-0.2-1c-0.2-0.2-0.4-0.5-0.7-0.7s-0.8-0.4-1.5-0.7l-0.3-0.1
		c-0.7-0.3-1.3-0.5-1.7-0.8s-0.8-0.6-1.1-1.1c-0.3-0.4-0.4-1-0.4-1.6c0-0.7,0.2-1.3,0.5-1.8s0.8-0.8,1.4-1.1
		c0.6-0.2,1.2-0.4,1.8-0.4c0.7,0,1.3,0.1,1.9,0.3c0.6,0.2,1.2,0.5,1.8,0.9l-0.7,1.2c-0.5-0.3-1-0.6-1.4-0.8c-0.5-0.2-1-0.2-1.6-0.2
		s-1.1,0.1-1.5,0.4C39,15,38.8,15.4,38.8,16c0,0.3,0.1,0.6,0.2,0.8c0.1,0.2,0.4,0.4,0.7,0.6s0.8,0.4,1.4,0.6l0.3,0.1
		c0.8,0.3,1.4,0.6,1.8,0.8c0.5,0.3,0.8,0.6,1.2,1.1c0.3,0.5,0.5,1.1,0.5,1.9s-0.2,1.4-0.5,1.9S43.6,24.7,43,25
		c-0.6,0.3-1.3,0.4-2.2,0.4C40,25.5,39.2,25.3,38.6,25.1z"/>
	<path class="st0" d="M51.6,24.7c-0.8-0.5-1.3-1.2-1.7-2.2c-0.4-0.9-0.6-2-0.6-3.3c0-1.5,0.2-2.7,0.7-3.6c0.5-0.9,1.1-1.6,1.8-2.1
		c0.8-0.4,1.6-0.6,2.5-0.6c0.7,0,1.3,0.1,1.9,0.3c0.6,0.2,1.1,0.5,1.7,0.8l-0.7,1.3c-0.9-0.6-1.8-0.9-2.8-0.9c-1.2,0-2,0.4-2.6,1.3
		c-0.6,0.8-0.8,2-0.8,3.5s0.3,2.7,0.9,3.6c0.6,0.9,1.5,1.3,2.6,1.3c0.6,0,1.1-0.1,1.6-0.2c0.5-0.2,0.9-0.4,1.4-0.7l0.6,1.3
		c-0.6,0.4-1.2,0.7-1.8,0.9c-0.6,0.2-1.2,0.3-1.9,0.3C53.3,25.5,52.3,25.2,51.6,24.7z"/>
	<path class="st0" d="M64.4,24.8c-0.7-0.4-1.2-1-1.5-1.8s-0.5-1.6-0.5-2.6v-7.3H64V20c0,2.6,1,3.9,3.1,3.9c1.1,0,1.8-0.3,2.3-1
		s0.7-1.6,0.7-2.8v-7h1.6v7.2c0,1.2-0.2,2.2-0.6,2.9c-0.4,0.8-1,1.3-1.7,1.7c-0.7,0.3-1.5,0.5-2.4,0.5
		C65.9,25.5,65.1,25.2,64.4,24.8z"/>
	<path class="st0" d="M78.6,23.8H84v1.5h-7V13.1h6.9v1.5h-5.3v3.8h4.7l-0.2,1.4h-4.5V23.8z"/>
</g>
</svg>
