<?xml version="1.0" encoding="utf-8"?>
<!-- Generator: Adobe Illustrator 25.0.1, SVG Export Plug-In . SVG Version: 6.00 Build 0)  -->
<svg version="1.1" id="レイヤー_1" xmlns="http://www.w3.org/2000/svg" xmlns:xlink="http://www.w3.org/1999/xlink" x="0px"
	 y="0px" viewBox="0 0 900 300" style="enable-background:new 0 0 900 300;" xml:space="preserve">
<style type="text/css">
	.st0{fill:#FFFFFF;}
	.st1{fill:#F7931E;}
	.st2{fill:#FFFFFF;stroke:#FFFFFF;stroke-miterlimit:10;}
</style>
<g>
	<g>
		<g>
			<g>
				<path class="st0" d="M198.1,69.5c-0.2,0.1-0.4,0.1-0.7,0c-38.9-17.7-82-15-115.3,7.2c-33.3,22.2-52.3,61-50.9,103.7
					c0,0.4-0.3,0.7-0.7,0.7c-0.4,0-0.7-0.4-0.7-0.8C28.3,137.3,47.6,98,81.3,75.6c33.7-22.5,77.3-25.2,116.6-7.3
					c0.4,0.2,0.6,0.6,0.4,1C198.3,69.4,198.2,69.5,198.1,69.5z"/>
			</g>
			<g>
				<path class="st0" d="M176.3,102c-0.2,0.1-0.4,0.1-0.6,0c-24.3-11.6-50.9-10.5-71.1,3c-20.3,13.5-31.5,37.7-30.1,64.5
					c0,0.4-0.2,0.6-0.6,0.6c-0.3,0-0.6-0.3-0.7-0.7c-1.5-27.3,10-51.8,30.6-65.6c20.6-13.8,47.7-14.9,72.3-3.1
					c0.3,0.2,0.5,0.6,0.4,0.9C176.5,101.8,176.4,101.9,176.3,102z"/>
			</g>
		</g>
		<g>
			<path class="st1" d="M68,52.8c-0.4,0.3-1,0.2-1.3-0.2L47.7,24c-0.3-0.4-0.1-1,0.3-1.3c0.4-0.3,1-0.2,1.3,0.2l19.1,28.5
				C68.6,51.9,68.5,52.5,68,52.8z"/>
			<path class="st1" d="M91.6,47.5c-0.2,0.1-0.5,0.2-0.7,0.2c-0.5-0.1-0.8-0.5-0.7-1l6.6-27.9c0.1-0.5,0.6-0.8,1.1-0.7
				c0.5,0.1,0.8,0.5,0.7,1l-6.6,27.9C92,47.2,91.8,47.4,91.6,47.5z"/>
			<path class="st1" d="M54,72.6c-0.2,0.1-0.4,0.2-0.7,0.2l-26.1-4.3c-0.5-0.1-0.8-0.5-0.7-1c0.1-0.5,0.6-0.8,1.1-0.7l26.1,4.3
				c0.5,0.1,0.8,0.5,0.7,1C54.3,72.2,54.2,72.4,54,72.6z"/>
			<path class="st1" d="M59.2,61.5c-0.3,0.2-0.7,0.2-1,0L32.3,45.2c-0.4-0.3-0.5-0.8-0.2-1.2c0.3-0.4,0.9-0.5,1.3-0.3L59.2,60
				c0.4,0.3,0.5,0.8,0.2,1.2C59.4,61.3,59.3,61.4,59.2,61.5z"/>
			<path class="st1" d="M102.8,51.7c-0.3,0.2-0.7,0.2-1,0c-0.4-0.3-0.5-0.8-0.2-1.2l15.2-21.6c0.3-0.4,0.9-0.6,1.3-0.3
				c0.4,0.3,0.5,0.8,0.2,1.2L103,51.4C103,51.5,102.9,51.6,102.8,51.7z"/>
			<path class="st1" d="M79.4,47.9C79.3,48,79.2,48,79.1,48c-0.5,0.1-1-0.2-1.1-0.7l-5.1-29.8c-0.1-0.5,0.3-1,0.8-1.1
				c0.5-0.1,1,0.2,1.1,0.7L79.9,47C79.9,47.3,79.8,47.7,79.4,47.9z"/>
			<path class="st1" d="M53.8,84.4c-0.1,0.1-0.2,0.1-0.3,0.1L30,89.8c-0.5,0.1-1-0.2-1.1-0.7c-0.1-0.5,0.3-1,0.8-1.1l23.5-5.2
				c0.5-0.1,1,0.2,1.1,0.7C54.3,83.9,54.1,84.2,53.8,84.4z"/>
		</g>
		<path class="st1" d="M98.4,60.3c-5.7-8.6-17.8-10.5-27-4.4c-9.2,6.1-12,18-6.3,26.6C67.8,80.7,95.7,62.1,98.4,60.3z"/>
	</g>
	<g>
		<path class="st0" d="M53.8,168.5l2-0.3l0.2,1l-2.9,0.4l-0.8-5.9l-1.7,0.2l-0.1-1.4c0.1,0,0.2,0.1,0.2,0.3l1.4-0.2l-0.9-5.9
			l2.9-0.4l0.2,1.1l-2,0.3L53.8,168.5z M54.9,158.5l1.2,8.4l-0.9,0.1l-1.2-8.4L54.9,158.5z M61.3,159.6c0.4-0.1,0.5-0.2,0.4-0.9
			l-0.3-2.3c-0.1-0.6-0.4-0.7-2-0.5c0.1-0.3,0.2-0.7,0.2-1c1.9-0.2,2.4,0.1,2.6,1.3l0.4,2.5c0.2,1.4,0,1.8-1.1,1.9l-3.6,0.5l0.4,2.8
			l0,0.1c2.5,0,4.5,0.6,5.9,4.1c-0.2,0.1-0.5,0.5-0.7,0.7c-1.2-3.2-2.9-3.7-5.1-3.7l0.6,4.1l-0.9,0.1l-2-13.8l0.9-0.1l0.7,4.7
			L61.3,159.6z"/>
		<path class="st0" d="M50.4,144.7c0.1,0,0.2,0.2,0.2,0.3c2-1.3,4.5-3.8,5.9-6c0.2,0.3,0.5,0.6,0.7,0.8c-1.6,2.2-4,4.7-6,5.9
			c1.6,1.5,3.4,4.3,4.5,7.1c-0.2,0.1-0.6,0.4-0.8,0.6c-1-2.9-3-5.8-4.7-7.2L50.4,144.7z M59.5,146.2l2.4,0.3l0.8-6.2l0.9,0.1
			l-1.6,13.3l-0.9-0.1l0.7-6l-2.4-0.3l-0.6,4.7l-0.8-0.1l0.6-4.7l-2.3-0.3l-0.5,4l-0.8-0.1l1.2-9.3l0.8,0.1l-0.5,4.2l2.3,0.3
			l0.6-4.8l0.8,0.1L59.5,146.2z"/>
		<path class="st0" d="M57.5,134.6l-1.9-0.7c0.3,0.6,0.6,1.3,0.7,2c-0.2,0.1-0.6,0.3-0.8,0.5c-0.4-1.5-1.2-3.2-2.4-4.5l0.8-1
			c0.1,0.1,0.1,0.2,0,0.4c0.3,0.3,0.6,0.7,0.8,1.1l3.6-9.4l0.8,0.3l-0.6,1.5l2.4,0.9l0.8-2.1l0.8,0.3l-0.8,2.1l2.4,0.9l0.7-1.9
			l0.8,0.3L60.8,138l-0.8-0.3l0.7-1.8l-2.4-0.9l-0.8,2l-0.8-0.3L57.5,134.6z M55.5,132.8l2.4,0.9l0.7-1.7l-2.4-0.9L55.5,132.8z
			 M57.2,128.5l-0.7,1.8l2.4,0.9l0.7-1.8L57.2,128.5z M60.6,126.7l-2.4-0.9l-0.7,1.8l2.4,0.9L60.6,126.7z M58.7,134l2.4,0.9l0.7-1.7
			l-2.4-0.9L58.7,134z M60.4,129.7l-0.7,1.8l2.4,0.9l0.7-1.8L60.4,129.7z M63.8,127.9l-2.4-0.9l-0.7,1.8l2.4,0.9L63.8,127.9z
			 M62.6,135.9c0.8,0.8,1.6,1.8,1.9,2.9l-0.7,0.8c-0.2-1-1-2.1-1.8-2.8L62.6,135.9z M65.9,134.9c-0.6-0.2-1.7-0.5-2.5-0.6l0.3-0.9
			c0.8,0.1,1.9,0.3,2.5,0.5L65.9,134.9z M67.3,131.3c-0.7-0.1-1.9-0.1-2.8,0l0.2-1c0.9-0.1,2.1-0.1,2.8,0L67.3,131.3z M68.9,127.3
			c-0.8,0.1-2.3,0.5-3.4,0.9l0.1-1c1.1-0.4,2.5-0.9,3.4-1L68.9,127.3z"/>
		<path class="st0" d="M60,118.5c1.1,0.1,2.4,0.4,3.1,0.7l-0.3,0.9c-0.8-0.3-2-0.7-3.1-0.8L60,118.5z M65.7,118.8l0.6,0.4
			c0.6-0.2,2.7-0.8,3.2-0.9l0.3,1c-0.5,0-1.8,0.3-2.7,0.5l4.6,3l-0.6,0.8l-4.8-3.2c0.8,1.4,1.6,3,1.8,4.2c-0.3-0.1-0.8-0.1-1.1,0
			c-0.3-1.4-1.1-3.4-2.1-4.8l-1.4,2.2l-0.7-0.5l1.6-2.4l-4.1-2.7l0.8-1c0.1,0.1,0.1,0.2,0,0.3l3.9,2.6l1.5-2.3l0.7,0.5L65.7,118.8z
			 M63.5,113.8c0,0.1,0,0.2-0.1,0.3c0.5,0.8,1.3,2,1.6,2.8c-0.1,0.1-0.5,0.4-0.6,0.5c-0.4-0.8-1.3-2.1-1.9-2.8L63.5,113.8z
			 M64,112.5c1-0.4,2.3-0.8,3-0.9l0,1c-0.8,0-2,0.4-3,0.8L64,112.5z M74,111.7l-0.9,2l3.2,2.1l-0.6,0.9l-3-2l-1.9,4.2l-0.8-0.3
			l1.9-4.3l-7.1-4.7l0.8-1.1c0.1,0.1,0.1,0.2,0,0.4l6.7,4.4l0.8-1.8L74,111.7z M66.9,114.9c1-0.5,2.4-1,3.2-1.1c0,0.8,0.1,0.9,0.1,1
			c-0.8,0.1-2.2,0.5-3.2,1L66.9,114.9z"/>
		<path class="st0" d="M75.1,107c-2.5-2.5-2.5-5.1-0.9-6.7c1.8-1.8,4.2-1.7,6.7,0.8c2.6,2.5,2.8,5,1.1,6.8
			C80.1,109.8,77.5,109.3,75.1,107z M80,102.1c-1.9-1.8-3.8-2.5-5.2-1.1c-0.9,0.9-1.1,2.8,1.4,5.2c1.8,1.7,3.8,2.4,5.1,1.1
			C82.6,105.9,81.9,103.9,80,102.1z"/>
		<path class="st0" d="M92.1,85.4l6.3,8.7c0.7,1,0.3,1.4-2,3.1c-0.2-0.2-0.6-0.4-0.9-0.5c0.5-0.3,0.9-0.6,1.2-0.9
			c1-0.7,1.1-0.8,0.8-1.1l-2.7-3.7l-8.7,6.3l3.4,4.8l-0.8,0.6l-7.1-9.8L92.1,85.4z M83.1,93l2.5,3.5l3.9-2.8l-2.5-3.5L83.1,93z
			 M90.3,93.1l4-2.9l-2.5-3.5l-4,2.9L90.3,93.1z"/>
		<path class="st0" d="M95.8,84.1c1-0.6,9.2-5.4,11-6.3l0.5,0.9c-0.2,0.1-0.4,0.2-0.5,0.2c-0.8,0.4-1.4,0.9-2,1.8
			c-1.5,2.2-2.5,5.2-1.7,6.8c0.9,1.8,2.8,2.1,6.4,0.8l0,1.1c-4.2,1.5-6.3,0.9-7.4-1.4c-0.9-1.8,0-4.9,1.8-7.6
			c-1.5,0.9-5.4,3.2-7.1,4.2c0,0.1-0.1,0.3-0.2,0.4L95.8,84.1z M106,82.1c0.9,0.1,2,0.5,2.7,0.8l-0.3,0.7c-0.7-0.4-1.9-0.7-2.7-0.8
			L106,82.1z M107,80.3c0.9,0.1,2.1,0.4,2.7,0.8l-0.3,0.6c-0.6-0.3-1.8-0.7-2.7-0.8L107,80.3z"/>
		<path class="st0" d="M115.7,75.9l0.2,0.7l-5.5,1.8l-0.2-0.7L115.7,75.9z M114.6,74.3l0.2,0.7l-4.2,1.4l-0.2-0.7L114.6,74.3z
			 M115.9,78c1.3-1.5,2.3-3.7,2.5-5.5l1.3-0.3c0,0.1-0.1,0.2-0.2,0.2c1.3,1.2,3.5,2.3,5.2,2.6c-0.1,0.3-0.3,0.7-0.3,1
			c-1.8-0.5-3.9-1.6-5.3-2.8c-0.3,1.7-1.3,3.8-2.6,5.4c-0.2-0.2-0.4-0.4-0.6-0.5l0.1,0.4l-4.3,1.4l-0.2-0.7l4.3-1.4L115.9,78z
			 M116.4,79.6l0.2,0.7l-4.3,1.4l-0.2-0.7L116.4,79.6z M117,81.5l1.3,3.9l-3.5,1.1l0.2,0.6l-0.9,0.3l-1.5-4.5L117,81.5z M116.4,82.5
			l-2.6,0.8l0.8,2.4l2.6-0.8L116.4,82.5z M121.4,75.9c0,0.1-0.1,0.1-0.2,0.2c-0.5,1.2-1.6,2.8-2.7,3.9c-0.2-0.1-0.6-0.3-0.8-0.3
			c1.1-1,2.2-2.5,2.6-3.7L121.4,75.9z M123.5,77.3c0,0.1-0.1,0.2-0.2,0.2c-0.7,1.6-2.1,3.5-3.8,4.8c-0.2-0.2-0.6-0.3-0.9-0.4
			c1.6-1.2,3.1-3.1,3.7-4.6L123.5,77.3z M125.6,78.9c0,0.1-0.1,0.2-0.3,0.2c-0.7,2.4-2.8,4.9-5.6,6.7c-0.2-0.2-0.6-0.4-0.9-0.6
			c2.7-1.7,4.8-4.1,5.5-6.4L125.6,78.9z"/>
		<path class="st0" d="M140.6,72.8l0.1,0.9l-1.6,0.3l1.2,7.3l-1,0.2l-1.2-7.3l-2.3,0.4L136,75c0.4,2.3,0.5,4.9-1.1,7.1
			c-0.2-0.1-0.6-0.2-0.9-0.3c0.3-0.4,0.6-0.9,0.8-1.3l-5.6,0.9l0.2,1.1l-0.9,0.1l-1.9-11.8l1.2-0.1c0,0.1-0.1,0.2-0.3,0.2l1.6,9.6
			l5.7-0.9l0.1,0.7c0.6-1.7,0.5-3.5,0.2-5.1l-0.8-4.8c0.3,0,0.6-0.1,0.7-0.1c1.4-0.6,2.9-1.4,3.7-2l1.1,0.5c0,0-0.1,0.1-0.3,0.1
			c-1,0.7-2.6,1.5-4.2,2.1l0.4,2.5L140.6,72.8z M128.7,70.9c0.5,0.7,1,1.7,1.1,2.3l-0.7,0.4c-0.2-0.7-0.6-1.6-1.1-2.3L128.7,70.9z
			 M131.5,79.8l-0.6-3.6c-0.4,1.2-0.9,2.4-1.5,3.1c-0.1-0.2-0.4-0.5-0.6-0.7c0.7-0.9,1.5-2.5,1.8-3.9l-2.1,0.3l-0.1-0.8l2.2-0.4
			l-0.7-4.2l1.2-0.1c0,0.1-0.1,0.2-0.3,0.2l0.6,4l2.2-0.4l0.1,0.8l-2.2,0.4l0.1,0.6c0.5,0.3,2.1,1.2,2.5,1.4l-0.5,0.8
			c-0.3-0.3-1.2-0.9-1.8-1.4l0.6,3.5L131.5,79.8z M133.4,70.4c0,0.1-0.1,0.1-0.3,0.2c-0.2,0.7-0.5,1.8-0.7,2.5
			c-0.1,0-0.5-0.1-0.7-0.1c0.2-0.7,0.5-1.9,0.6-2.7L133.4,70.4z"/>
		<path class="st0" d="M148.7,78.9c0-0.5,0.4-0.9,1-0.9c0.5,0,1,0.4,1,0.9c0,0.5-0.4,0.9-1,0.9C149.1,79.8,148.7,79.4,148.7,78.9z
			 M149.1,76.7l-0.3-7.7l1.5,0l-0.2,7.7L149.1,76.7z"/>
		<path class="st0" d="M163.8,80c0.1-0.5,0.6-0.8,1.1-0.7c0.5,0.1,0.9,0.6,0.8,1.1c-0.1,0.5-0.6,0.8-1.1,0.7
			C164,80.9,163.7,80.4,163.8,80z M164.6,77.8l1-7.6l1.5,0.2l-1.5,7.5L164.6,77.8z"/>
	</g>
</g>
<g>
	<path class="st0" d="M152.3,247.6h-10.2c-0.2,0.1-0.5,0.2-0.8,0.2c-1.8,6.2-4.7,11-8.7,14.7c6.7,2.5,12.8,5.3,17.1,7.8l-2.6,3.3
		c-4.2-2.6-10.6-5.6-17.7-8.4c-6,4.3-14,6.8-23.8,8.3c-0.4-0.9-1.4-2.4-2.2-3.3c8.8-1.2,16.2-3.2,21.8-6.6
		c-3.8-1.4-7.8-2.8-11.5-3.8c-0.5,0.8-0.8,1.7-1.2,2.4l-3.9-1c2-3.5,4.3-8.5,6.6-13.6h-13.7v-3.7h15.4c1.6-3.6,3.1-7.1,4.3-10.2
		l4.8,1c-0.2,0.5-0.5,0.6-1.2,0.6c-1.1,2.6-2.4,5.6-3.7,8.7h31.5V247.6z M107,231.7v8.6h-3.8v-12.2h21.6v-7l5.1,0.3
		c-0.1,0.4-0.3,0.7-1.1,0.8v5.9h21.8v12.2h-3.9v-8.6H107z M119.3,247.6c-1.4,3.2-2.9,6.3-4.2,9.2c4.3,1.1,8.9,2.6,13.6,4.3
		c4-3.3,6.9-7.7,8.6-13.4H119.3z"/>
	<path class="st0" d="M155.2,262.6c3.9-5,5.9-13.5,6.6-20.9l3.7,0.8c-0.9,7.5-2.8,16.7-6.9,22.2L155.2,262.6z M171.3,237.1l5,0.3
		c-0.1,0.4-0.3,0.7-1.1,0.7V266c0,2.6,0.6,3.2,3.9,3.2h11.1c3.5,0,4.1-2.1,4.4-12.2c1,0.7,2.5,1.4,3.6,1.7c-0.6,10.7-1.8,14-7.9,14
		h-11.5c-5.9,0-7.5-1.5-7.5-6.8V237.1z M191.5,234.2c-4.4-3.2-12.8-7.4-19.8-9.8l2.4-2.9c6.9,2.4,15.3,6.5,19.8,9.5L191.5,234.2z
		 M205.8,263c-1.4-6-5.6-14.9-10.5-21.4l3.4-1.6c5.1,6.5,9.5,15.3,10.9,21.3L205.8,263z"/>
	<path class="st0" d="M263.4,247.6h-10.2c-0.2,0.1-0.5,0.2-0.8,0.2c-1.8,6.2-4.7,11-8.7,14.7c6.7,2.5,12.8,5.3,17.1,7.8l-2.6,3.3
		c-4.2-2.6-10.6-5.6-17.7-8.4c-6,4.3-14,6.8-23.8,8.3c-0.4-0.9-1.4-2.4-2.2-3.3c8.8-1.2,16.2-3.2,21.8-6.6
		c-3.8-1.4-7.8-2.8-11.5-3.8c-0.5,0.8-0.8,1.7-1.2,2.4l-3.9-1c2-3.5,4.3-8.5,6.6-13.6h-13.7v-3.7h15.4c1.6-3.6,3.1-7.1,4.3-10.2
		l4.8,1c-0.2,0.5-0.5,0.6-1.2,0.6c-1.1,2.6-2.4,5.6-3.7,8.7h31.5V247.6z M218.1,231.7v8.6h-3.8v-12.2h21.6v-7l5.1,0.3
		c-0.1,0.4-0.3,0.7-1.1,0.8v5.9h21.8v12.2h-3.9v-8.6H218.1z M230.4,247.6c-1.4,3.2-2.9,6.3-4.2,9.2c4.3,1.1,8.9,2.6,13.6,4.3
		c4-3.3,6.9-7.7,8.6-13.4H230.4z"/>
	<path class="st0" d="M296.7,221.3c-0.1,0.5-0.6,0.7-1.1,0.8c5.5,7.4,15.6,15.9,24.3,20.4c-1,0.9-1.9,2.2-2.5,3.3
		c-8.8-5.2-18.9-13.7-24.1-21c-4.6,7-13.9,15.6-23.6,21.4c-0.5-0.8-1.6-2.2-2.4-3c9.8-5.5,19.6-14.8,24-22.3L296.7,221.3z
		 M295.2,258.5v9.8h22.7v3.5h-48.7v-3.5h22.1v-9.8H274v-3.4h17.3v-9.3h-14.9v-3.4h34.3v3.4h-15.5v9.3h17.6v3.4H295.2z"/>
	<path class="st0" d="M352.3,231.4c-0.2,0.5-0.7,0.9-1.4,0.9c-2,17.5-7.9,32.8-17.2,32.8c-4.7,0-9-4.7-9-13.6
		c0-13.5,10.5-24.8,25.3-24.8c16.3,0,23.3,10.3,23.3,21.3c0,13.4-7.8,19.9-21.4,23c-0.5-0.9-1.5-2.4-2.4-3.4
		c12.9-2.5,19.6-8.8,19.6-19.4c0-9.3-6-17.7-19.1-17.7c-0.6,0-1.2,0.1-1.7,0.1L352.3,231.4z M346.9,230.7
		c-11.4,1.4-18.4,10.8-18.4,20.7c0,6,2.6,9.8,5.3,9.8C340.6,261.2,345.4,246.1,346.9,230.7z"/>
	<path class="st0" d="M386,241.1c-2.1,3.5-4.5,6.7-6.9,9.4c-0.4-0.9-1.4-2.6-2-3.5c5.4-5.9,10.8-15.6,14.1-25.3l4.5,1.5
		c-0.2,0.4-0.6,0.6-1.3,0.5c-1.5,3.9-3.2,7.9-5.2,11.6l1.5,0.4c-0.1,0.3-0.4,0.6-1.1,0.7v37.3H386V241.1z M414.4,267.9h16.3v3.6h-37
		v-3.6h16.8v-15h-13.4v-3.6h13.4v-13.1h-15.3v-3.6h20.1c-2.6-2.6-8-6.4-12.3-8.9l2.5-2.7c4.3,2.5,9.9,6.1,12.6,8.7l-2.5,2.9H430v3.6
		h-15.5v13.1h13.8v3.6h-13.8V267.9z"/>
	<path class="st0" d="M438.5,229.9c3.5,0.2,8.2,0.2,12,0.2c2.5,0,5.4-0.1,7.8-0.1c-0.1-2.7-0.1-5.9-0.1-7.8l5.7,0.3
		c-0.1,0.7-0.6,1-1.5,1.2c-0.1,0.9,0,5.2,0,6.2c6.6-0.3,13.1-0.9,18.7-2.2l0.5,3.7c-5.5,1.2-12,1.8-19.2,2.1
		c0.1,3.4,0.1,6.9,0.2,10.4c5.5-0.3,11.3-1.1,15.9-2.2l0.5,3.7c-4.7,1-10.6,1.7-16.3,2l0.5,9.4c5.2,1.7,10.7,4.6,16.5,8.8l-2.5,3.4
		c-5.1-4-9.8-6.7-14-8.3c0,0.9,0.1,1.9,0.1,2.6c-0.1,5.3-3.3,8.4-10.1,8.4c-7.1,0-12.4-2.9-12.4-8.2c0-5.4,6.1-8.4,12.4-8.4
		c1.9,0,3.8,0.2,5.9,0.7c-0.1-2.4-0.2-5.3-0.2-8.4c-1.8,0.1-3.8,0.1-5.5,0.1c-9.6,0-12.3-1.5-12.3-4.8c0-2.1,1.6-3.9,5.2-6.2
		l2.7,1.7c-2.5,1.4-3.9,2.6-3.9,3.8c0,1.7,2.6,2,9.8,2c1.2,0,2.5,0,3.8-0.1l-0.3-10.4c-2.4,0.1-5.2,0.1-7.8,0.1
		c-3.6,0-8.7,0-12.1-0.1V229.9z M459.3,259.2c-2.3-0.6-4.3-0.9-6.3-0.9c-4.3,0-8.6,1.7-8.6,5.1c0,3.3,3.9,5,8.8,5
		c4.4,0,6.1-2,6.1-5.9L459.3,259.2z"/>
	<path class="st0" d="M499.1,228.8c-0.1,0.5-0.7,0.8-1.5,0.9c-0.7,4.2-1.1,9.3-1.1,14c0,2.1,0.1,4.1,0.2,5.9
		c0.7,9.6,4.6,15.4,8.9,15.3c2.3,0,5.2-5.7,7.2-12c0.8,0.8,2.3,1.9,3.3,2.4c-2.6,7.6-5.9,13.8-10.5,13.9
		c-7.1,0.1-12.1-8.6-12.9-19.4c-0.2-2.1-0.2-4.5-0.2-7c0-5,0.3-10.4,0.8-15.1L499.1,228.8z M536.4,255c-1.6-9.8-6.6-16.9-14.2-21.2
		l2.5-3c8.2,4.4,14.2,12.5,15.9,22.9L536.4,255z"/>
	<path class="st0" d="M594.7,245.3c-0.1,0.1-0.2,0.1-0.3,0.1c-0.3,0-0.6-0.2-0.8-0.3c-4.3,1.4-10.5,3.7-15.2,5.7
		c0.1,1.3,0.2,2.8,0.2,4.4c0,1.8-0.1,3.8-0.2,6l-4.1,0.2c0.2-2,0.3-4.6,0.3-6.8c0-0.8,0-1.6-0.1-2.3c-6.4,3.1-11.5,6.9-11.5,10.2
		c0,3.3,3.9,4.8,11.6,4.8c5.5,0,10.5-0.1,14.1-0.6l0.1,3.8c-3.3,0.3-8.4,0.5-14.2,0.5c-10.8,0-15.6-2.6-15.6-8.3c0-5,6.5-9.7,15-14
		c-0.3-3.5-1.9-5.3-4.2-5.3c-4.1,0-8.4,2.3-13.4,7.9c-1.6,1.7-3.8,3.9-6.2,6.1l-2.8-2.8c5.6-5,10.9-9.7,14.2-20.8l-3.2,0.1H549v-3.7
		c3.4,0.1,7.4,0.1,9.7,0.1l3.8-0.1c0.6-2.6,1.1-5,1.5-8l5.5,0.7c-0.1,0.6-0.6,0.9-1.4,1c-0.4,2.3-0.9,4.2-1.4,6.2
		c3.8-0.1,12-1,19.4-3.3l0.7,3.8c-7,2.2-15.5,3-21.1,3.2c-1.4,4.2-2.8,7.6-4.1,9.5h0.1c2.5-2.2,6.2-3.7,9.1-3.7c3.8,0,6.2,2.8,7,7.3
		c4.7-2.1,10.7-4.4,15.2-6.2L594.7,245.3z"/>
	<path class="st0" d="M652.3,243.9v3.7h-15.4v20.8c0,2.6-0.7,3.8-2.6,4.4c-1.9,0.7-5.2,0.7-10.7,0.7c-0.2-1.1-0.8-2.7-1.4-3.8
		c2.2,0.1,4.2,0.1,5.9,0.1c4.5,0,5,0,5-1.3v-20.8h-31.9v-3.7h31.9v-9.2l5,0.3c-0.1,0.4-0.3,0.7-1.1,0.8v8.2H652.3z M606.9,231.8v8.2
		h-3.8v-11.8h21.6v-7l5.1,0.3c-0.1,0.4-0.3,0.7-1.1,0.8v5.9h21.8v11.8h-3.9v-8.2H606.9z M618.2,264.9c-1.7-3.4-5.7-8.6-9.4-12.2
		l3-1.9c3.8,3.5,7.8,8.6,9.6,11.9L618.2,264.9z"/>
	<path class="st0" d="M668,254.4c-1.1-3-1.6-7.4-1.6-10.6c0-5.3,0.6-11.4,1.9-18.6l5.6,1c-0.2,0.7-0.9,0.9-1.6,1
		c-1.1,4.7-1.9,11.8-1.9,16.4c0,1.2,0.1,2.3,0.2,3c1.1-2.8,3.2-6.6,4.4-8.7c0.5,0.7,1.6,1.9,2.2,2.5c-4.2,7.5-5.4,9.6-5.4,12
		c0,0.5,0.1,0.9,0.2,1.4L668,254.4z M698.2,223.8c-0.1,0.7-0.5,1-1.5,1.2c0.4,4.9,1,13.1,1,19.5c-0.1,10.9-4,20.7-20.9,27.7
		c-0.6-0.9-2-2.4-2.8-3.3c15.4-5.9,19.5-15.1,19.5-24.4c0-6.9-0.7-15.1-1.3-21.1L698.2,223.8z"/>
	<path class="st0" d="M716.2,229.9c3.5,0.2,8.2,0.2,12,0.2c2.5,0,5.4-0.1,7.8-0.1c-0.1-2.7-0.1-5.9-0.1-7.8l5.7,0.3
		c-0.1,0.7-0.6,1-1.5,1.2c-0.1,0.9,0,5.2,0,6.2c6.6-0.3,13.1-0.9,18.7-2.2l0.5,3.7c-5.5,1.2-12,1.8-19.2,2.1
		c0.1,3.4,0.1,6.9,0.2,10.4c5.5-0.3,11.3-1.1,15.9-2.2l0.5,3.7c-4.7,1-10.6,1.7-16.3,2l0.5,9.4c5.2,1.7,10.7,4.6,16.5,8.8l-2.5,3.4
		c-5.1-4-9.8-6.7-14-8.3c0,0.9,0.1,1.9,0.1,2.6c-0.1,5.3-3.3,8.4-10.1,8.4c-7.1,0-12.4-2.9-12.4-8.2c0-5.4,6.1-8.4,12.4-8.4
		c1.9,0,3.8,0.2,5.9,0.7c-0.1-2.4-0.2-5.3-0.2-8.4c-1.8,0.1-3.8,0.1-5.5,0.1c-9.6,0-12.3-1.5-12.3-4.8c0-2.1,1.6-3.9,5.2-6.2
		l2.7,1.7c-2.5,1.4-3.9,2.6-3.9,3.8c0,1.7,2.6,2,9.8,2c1.2,0,2.5,0,3.8-0.1l-0.3-10.4c-2.4,0.1-5.2,0.1-7.8,0.1
		c-3.6,0-8.7,0-12.1-0.1V229.9z M737,259.2c-2.3-0.6-4.3-0.9-6.3-0.9c-4.3,0-8.6,1.7-8.6,5.1c0,3.3,3.9,5,8.8,5c4.4,0,6.1-2,6.1-5.9
		L737,259.2z"/>
	<path class="st0" d="M795.1,230.5c-0.1-1.2-0.2-7.4-0.3-8.8l5.8,0.2c-0.1,0.5-0.5,1-1.5,1.2c0,0.7,0,1.4,0.1,7.3
		c6.9-0.2,14.2-0.4,18.4-0.5v3.9c-4.8-0.1-11.6,0-18.3,0.2c0.1,4.4,0.2,8.4,0.4,11.5c0.6,1.9,0.7,3.5,0.7,5.9c0,1.8-0.2,3.9-0.6,5.5
		c-1.5,6.6-6.3,12.4-16.2,16.3c-0.7-1-2-2.4-2.9-3.2c8.6-3.1,13.2-7.8,14.6-13.1h-0.1c-1.2,1.7-3.3,3-5.8,3c-5,0-9.5-4.1-9.5-9.8
		c-0.1-6,4.8-10.5,10.1-10.5c2,0,4.1,0.7,5.2,1.7c0-1-0.1-4.7-0.2-7.1c-5.9,0.1-23.6,0.7-25.9,0.8l-0.1-3.7l12.8-0.3L795.1,230.5z
		 M796.1,250.2c0-2.2,0-7.3-5.7-7.3c-3.9,0.1-6.6,3-6.7,7.1c0,3.9,3,6.5,6.2,6.5C793.9,256.6,796.1,253.5,796.1,250.2z"/>
	<path class="st0" d="M845.4,265.7c0-2,1.6-3.7,3.5-3.7s3.5,1.6,3.5,3.7c0,2-1.6,3.7-3.5,3.7C846.8,269.4,845.4,267.6,845.4,265.7z
		 M847.1,256.7l-0.8-30.8h5.4l-0.8,30.8H847.1z"/>
</g>
<g>
	<path class="st2" d="M295.1,159V98.1h27.6v4.3h-23.3V159H295.1z"/>
	<path class="st2" d="M356.9,101.5c-0.3,0.7-1,0.9-1.8,0.8c-1.7,5.6-3.7,11.1-5.9,16.5l1.9,0.5c-0.2,0.6-0.6,0.9-1.7,1v55.9h-5.1
		v-46.9c-2.5,4.8-5.1,9.2-8,12.9c-0.6-1.4-1.8-4.1-2.6-5.5c6.6-8.6,12.8-23,16.6-37.3L356.9,101.5z M369.2,129.6l2.8,0.7
		c-0.1,0.4-0.2,0.7-0.4,1c-1.1,11.6-3.3,21.1-6.6,28.5c5.7,7.5,14,9.5,25.1,9.5c2.4,0,19.9,0,23.2-0.1c-0.8,1.2-1.7,3.7-1.9,5.1
		h-21.6c-12.1,0-21-2.2-27.2-9.7c-2.6,4.4-5.6,8-9.2,10.8c-0.7-1.2-2.2-3.1-3.3-4.1c3.7-2.7,6.8-6.5,9.4-11.4
		c-2.5-4.5-4.4-10.1-5.9-17.4l4.2-1.4c1.1,5.4,2.4,9.8,4.1,13.4c2.2-5.7,3.7-12.5,4.7-20.4h-7.8l-1.7,3.7l-4.7-1.1
		c3.8-8.1,8.4-18.9,11.3-26.2h-9.2V106h11.9l1-0.2l3.2,1.3c-0.2,0.3-0.2,0.7-0.5,1.1c-2.2,5.2-5.7,13.7-9.3,21.7h7.6L369.2,129.6z
		 M387.3,117.7v-6.9h-12.7v-4.5h12.7v-6.9l6.8,0.5c-0.1,0.5-0.6,0.9-1.7,1.1v5.3h15.2v11.4h5.4v4.5h-5.4v11.5h-15.2v6.8h16.5v4.5
		h-16.5v7h18.9v4.5h-18.9v10h-5.1v-10h-16.8V152h16.8v-7h-14.1v-4.5h14.1v-6.8h-12.7v-4.4h12.7v-7.1h-18.3v-4.5H387.3z M402.7,110.9
		h-10.3v6.9h10.3V110.9z M402.7,129.4v-7.1h-10.3v7.1H402.7z"/>
	<path class="st2" d="M501.9,111.8h-64.3v19.9c0,13-1.1,32-8.1,44.6c-1-1-3.3-2.6-4.6-3.1c6.6-12.1,7.3-29.2,7.3-41.6v-25h31.5V99
		l7.4,0.5c-0.1,0.6-0.5,1-1.7,1.2v6.1h32.5V111.8z M437.7,168.1c5.8-1.9,14.4-5.1,22.9-8.2c0.2,0.9,0.5,1.8,1,4.2
		c-7.4,3-14.9,6.1-19.9,8c0,0.6-0.3,1.1-0.8,1.4L437.7,168.1z M494.4,145.5h-20.9c1.6,4.1,3.7,7.9,6.5,11.3
		c4.7-2.8,10.3-6.6,13.8-9.6l5,3.9c-0.3,0.4-1,0.6-1.7,0.4c-3.7,2.6-9.4,6-14.2,8.5c4.9,5,11.1,8.6,18.3,10.7
		c-1.2,1.1-2.7,3.1-3.5,4.5c-11.8-4-20.7-12-26.1-23v17.2c0,3.7-0.9,5.1-3.5,6c-2.6,0.7-7,0.8-13.9,0.8c-0.3-1.4-1.1-3.6-1.9-5
		c3.2,0.1,6.3,0.2,8.5,0.2c4.9,0,5.4,0,5.4-2v-23.8h-20.7v-4.2H466v-7.1h-26.2v-4.3H466v-6.7h-20.2V119H466v-6.3l7,0.4
		c-0.1,0.7-0.5,1.1-1.6,1.2v4.7h22.9v10.9h8.5v4.3h-8.5V145.5z M454.8,159.2c-2.7-2.7-8.1-6.6-12.4-9.3l3.2-3
		c4.4,2.4,9.9,6.2,12.6,8.8L454.8,159.2z M471.4,123.1v6.7H489v-6.7H471.4z M471.4,134.2v7.1H489v-7.1H471.4z"/>
	<path class="st2" d="M547,113v4.6h-31V113H547z M544.5,146.9v24.4h-19.8v3.9h-4.9v-28.3H544.5z M544.3,125.5
		c9.1-6.1,17.8-16.9,21.7-26.5l7.2,0.4c-0.2,0.5-0.6,0.8-1.2,1c4.9,9.2,14.2,19.2,22.5,24.3c-1.1,1.4-2.4,3.4-3.2,5.1
		c-8.5-6-17.6-15.9-22.5-25.1c-4.3,8.9-12.7,19.3-22.1,25.7c-0.6-1.2-1.6-2.8-2.5-4v2.4h-24.4v-4.6h24.4V125.5z M544.3,135.6v4.6
		h-24.4v-4.6H544.3z M544.1,102v4.6h-23.8V102H544.1z M539.5,151.6h-14.8v14.9h14.8V151.6z M592.3,147.9c-0.3,0.5-0.8,0.7-1.7,0.7
		c-7.6,12.4-22.1,22.4-39.6,27.9c-0.7-1.4-2.2-3.5-3.5-4.7c16.8-4.7,31.2-14.2,38.5-26.3L592.3,147.9z M576.1,123.5
		c-0.2,0.4-0.7,0.7-1.5,0.7c-4.6,6-12.7,12.7-20.3,16.8c-0.9-1-2.4-2.6-3.7-3.5c7.1-3.7,15.1-10,19.4-16.2L576.1,123.5z
		 M584.4,135.4c-0.2,0.4-0.8,0.7-1.6,0.7c-6,7.8-16.7,15.7-27.3,20.4c-0.8-1.2-2.3-2.9-3.7-4c10.1-4.1,20.7-11.6,26.4-19.4
		L584.4,135.4z"/>
	<path class="st2" d="M683.8,127.2v5.1h-9v43.7h-5.2v-43.7h-12.4v3.6c0,13.8-1.5,29.2-11.9,40.3c-1-0.7-3.2-2-4.6-2.6
		c2.1-2.2,3.8-4.6,5.1-7.1h-30.5v6.6h-5v-70.8l6.6,0.4c-0.1,0.6-0.5,1-1.6,1.1v57.8h31.1v4c4.8-9.3,5.6-20.2,5.6-29.7v-28.5
		c1.7,0.1,3.1,0.2,4,0.2c8-2.3,16.4-5.5,21.3-8.5l5.6,4.2c-0.2,0.2-0.8,0.4-1.7,0.2c-5.7,2.9-15.3,6.1-24,8.4v15.2H683.8z
		 M629.6,159.6v-21.5c-3,6.6-6.8,13.1-10.7,16.9c-0.5-1.4-1.7-3.4-2.5-4.6c4.7-4.6,9.9-13.1,12.8-21h-11.5v-4.9h12V99.2l6.4,0.4
		c-0.1,0.6-0.5,0.9-1.6,1.1v23.9h12v4.9h-12v3.9c2.6,2.2,10,9,11.8,10.7l-3.2,4.1c-1.6-2.2-5.5-6.5-8.5-9.7v21.2H629.6z
		 M622.4,104.8c2.1,4.6,3.7,10.6,4.1,14.6l-4,1.4c-0.3-4.1-1.9-10.1-3.8-14.8L622.4,104.8z M647.4,106.5c-0.2,0.5-0.8,0.7-1.7,0.7
		c-1.4,4-3.9,9.9-6,13.8c-0.7-0.3-2.7-1.2-3.4-1.5c1.9-4,4.3-10.6,5.6-15L647.4,106.5z"/>
	<path class="st2" d="M724.7,115.2v60.9H697v-4.4h23.3v-56.5H724.7z"/>
</g>
<g>
	<path class="st0" d="M134.5,144.5c-3.2,1.1-7.1,1.9-11.6,2.4c0,3.8-0.1,8-0.1,11.5c4.7-1.6,9.7-2.8,13.6-2.8
		c10.2,0,16.6,5.5,16.6,14c0,7.9-4.9,14.1-14.1,14.1c-4.4,0-8.5-1.6-11.7-5.8c0.7-0.9,1.6-2.1,2.2-3.1c2.9,3.7,6.1,4.9,9.6,4.9
		c6.4,0,9.7-4.6,9.7-10.1c0-5.8-4.3-10.4-12.3-10.3c-3.8,0.1-8.8,1.1-13.5,2.9c0,4.4,0.1,11.6,0.1,13.3c0,5.4-3.5,9.5-9.4,9.5
		c-5.5,0-10.1-3.4-10.1-9.2c0-3.8,2.8-8.2,7.5-11.5c2.2-1.5,4.9-3.1,8-4.3v-12.7c-4.8,0.4-9.6,0.5-14.4,0.4l-0.1-4.1
		c5.3,0.1,10.1,0,14.5-0.4v-11.2l6.1,0.4c-0.1,0.7-0.7,1.1-1.7,1.3c-0.1,2.3-0.2,5.9-0.2,9.2c4-0.5,7.7-1.3,10.8-2.5L134.5,144.5z
		 M118.9,175.1c0-1.6-0.1-6.5-0.1-11.4c-2.2,1-4.3,2.3-6.1,3.5c-3.1,2.2-5.5,5.6-5.5,8.2c0,3.1,2,5.7,6.1,5.7
		C116.4,181.2,118.9,179.1,118.9,175.1L118.9,175.1z M152.8,151.6c-3.1-3.1-8.8-6.5-13.7-8.6l2.1-3.5c5.2,2.2,10.9,5.6,14.2,8.6
		L152.8,151.6z"/>
	<path class="st0" d="M192.1,151.1c1.2,4,2.9,7.7,4.9,11.2c4-2.5,8.6-5.8,11.6-8.5l3.7,3.3c-0.2,0.2-0.8,0.3-1.3,0.2
		c-3.1,2.4-8,5.6-12.1,7.9c4.3,5.9,10,10.5,17.1,12.8c-0.9,0.8-2,2.3-2.7,3.4c-12.3-4.5-20.2-15.5-24.5-29.2
		c-1.9,1.4-4.2,2.9-6.6,4.1c8.3,5.9,11.8,13.6,11.8,19.7c0,6.5-4.1,10.4-10.3,10.4c-1.5,0-3.4-0.1-5.4-0.2c-0.1-1-0.4-2.7-1.1-3.8
		c2.2,0.2,4.3,0.2,5.6,0.2c1.7,0,3.2-0.1,4.4-1.1c1.7-1.1,2.6-3.3,2.6-6.1c0-1.7-0.4-3.5-1.1-5.5c-6.6,5.7-16.9,11.4-25.6,14.3
		c-0.5-1-1.3-2.5-2.2-3.4c9.1-2.5,20.2-8.3,26.2-14.1c-0.8-1.3-1.7-2.5-2.8-3.7c-5.2,3.8-13.3,8-19.6,10.3c-0.5-1-1.4-2.3-2.2-3.2
		c6.4-1.9,14.6-5.8,19.5-9.4c-1-0.9-2.2-1.9-3.4-2.8c-4.5,2.1-9.4,3.8-13.9,5.2c-0.5-0.8-1.4-2.3-2-3.1c7.4-1.9,15.8-5,21.7-9.1
		h-14.2v-3.5h34.4v3.5H192.1z M166.6,141.3v8.1h-3.9v-11.8h22.9v-7.1l5.3,0.4c-0.1,0.4-0.4,0.7-1.2,0.8v5.9H213v11.8h-4.1v-8.1
		H166.6z"/>
	<path class="st0" d="M250.5,141.5c-0.2,0.5-0.7,1-1.5,1c-2.2,18.7-8.4,34.9-18.4,34.9c-5,0-9.6-5-9.6-14.5
		c0-14.4,11.2-26.5,27-26.5c17.3,0,24.8,11,24.8,22.7c0,14.3-8.3,21.2-22.8,24.5c-0.5-1-1.6-2.6-2.5-3.7
		c13.8-2.6,20.9-9.4,20.9-20.7c0-9.9-6.4-18.9-20.4-18.9c-0.6,0-1.3,0.1-1.8,0.1L250.5,141.5z M244.7,140.7
		c-12.1,1.5-19.6,11.5-19.6,22c0,6.4,2.8,10.4,5.6,10.4C238,173.2,243.2,157.2,244.7,140.7z"/>
</g>
<g>
	<path class="st0" d="M752.5,138.7c4.5-0.2,41.5-2.8,49.3-2.9l0.1,4.5c-0.8-0.1-1.5-0.1-2.2-0.1c-3.5,0-6.4,0.6-10.3,3.1
		c-9,5.4-17.7,15.1-17.7,22.8c0,8.4,5.9,13.4,20.8,15.3l-2,4.2c-17-2.5-23.4-8.8-23.4-19.5c0-8.5,8.3-18.7,19.3-25.6
		c-6.6,0.5-24.3,1.8-32,2.5c-0.2,0.5-0.8,0.9-1.3,1L752.5,138.7z M791.3,150.5c2.9,2.2,6.3,5.7,8.2,8.3l-2.3,1.9
		c-1.7-2.6-5.3-6.4-7.9-8.3L791.3,150.5z M797.8,145.2c2.9,2.2,6.4,5.6,8.2,8.3l-2.3,1.8c-1.6-2.4-5.1-6.1-7.9-8.3L797.8,145.2z"/>
</g>
</svg>
